<?xml version="1.0" encoding="UTF-8"?> <svg xmlns="http://www.w3.org/2000/svg" xmlns:xlink="http://www.w3.org/1999/xlink" width="384.449" height="441.872" viewBox="0 0 384.449 441.872"><defs><linearGradient id="linear-gradient" y1="0.5" x2="1" y2="0.5" gradientUnits="objectBoundingBox"><stop offset="0" stop-color="#1eb9ff"></stop><stop offset="1" stop-color="#1d39b8"></stop></linearGradient><linearGradient id="linear-gradient-2" x1="-0.297" y1="4.247" x2="-1.448" y2="2.69" xlink:href="#linear-gradient"></linearGradient><linearGradient id="linear-gradient-3" x1="-2.862" y1="-4.338" x2="-1.856" y2="-4.338" xlink:href="#linear-gradient"></linearGradient><linearGradient id="linear-gradient-4" x1="0.7" y1="0.928" x2="0.427" y2="0.128" gradientUnits="objectBoundingBox"><stop offset="0" stop-color="#723141"></stop><stop offset="1" stop-color="#9a4044"></stop></linearGradient><linearGradient id="linear-gradient-5" x1="0.423" y1="0.447" x2="0.76" y2="1.031" gradientUnits="objectBoundingBox"><stop offset="0" stop-color="#fe817e"></stop><stop offset="1" stop-color="#ffd39f"></stop></linearGradient><linearGradient id="linear-gradient-6" x1="0.997" y1="1.115" x2="0.387" y2="0.262" xlink:href="#linear-gradient-5"></linearGradient><linearGradient id="linear-gradient-7" x1="0.647" y1="1.084" x2="0.42" y2="0.232" xlink:href="#linear-gradient-5"></linearGradient><linearGradient id="linear-gradient-8" x1="0.597" y1="1.151" x2="0.411" y2="0.112" xlink:href="#linear-gradient-5"></linearGradient></defs><g id="quienes-somos" transform="translate(-852.766 -977.628)"><g id="Grupo_159" data-name="Grupo 159" transform="translate(852.763 1053.879)"><g id="Grupo_137" data-name="Grupo 137" transform="translate(0.003 0)" opacity="0.8"><circle id="Elipse_11" data-name="Elipse 11" cx="148.819" cy="148.819" r="148.819" transform="translate(74.683)" opacity="0.8" fill="url(#linear-gradient)"></circle><path id="Trazado_209" data-name="Trazado 209" d="M66.239,22c1.473,12.231-9.695,16.772-23.93,18.49s-26.18-.041-27.653-12.272S23.532,4.654,37.768,2.936,64.766,9.767,66.239,22Z" transform="translate(44.852 8.395)" opacity="0.8" fill="url(#linear-gradient-2)"></path><path id="Trazado_210" data-name="Trazado 210" d="M181.453,318.064C62.66,264.6-24.84,128.421,6.372,59.084s217.705-53.015,336.5.45C461.623,113,300.2,371.529,181.453,318.064Z" transform="translate(-0.003 40.319)" opacity="0.8" fill="url(#linear-gradient-3)"></path></g></g><g id="Grupo_158" data-name="Grupo 158" transform="translate(977.997 977.634)"><path id="Trazado_218" data-name="Trazado 218" d="M60,254.774A45.237,45.237,0,0,1,71.54,244.8c6.724-3.847,4.324-11.54,4.324-11.54H91.235s4.8,14.894,2.4,17.787-11.391,4.711-11.391,4.711Z" transform="translate(29.453 114.513)" fill="#1c1c1c"></path><path id="Trazado_219" data-name="Trazado 219" d="M83.792,250.893s-13.284-19.173-24.272.552A56.509,56.509,0,0,0,83.792,250.893Z" transform="translate(29.218 119.065)" fill="#f4e9ea"></path><path id="Trazado_220" data-name="Trazado 220" d="M29.12,252.043a45.343,45.343,0,0,1,11.972-9.452c6.888-3.548,4.831-11.331,4.831-11.331l15.356.671s4.145,15.088,1.61,17.876-11.584,4.2-11.584,4.2Z" transform="translate(14.294 113.531)" fill="#1c1c1c"></path><path id="Trazado_221" data-name="Trazado 221" d="M83.03,157.328s-20.291,30.31-22.826,35.29.85,22.617,3.384,47.053S61.9,294.865,61.9,294.865s-11.838,3.161-19.859,0c0,0-1.267-39.822-6.769-66.062s-2.952-31.667-1.685-51.123,16.475-67.866,16.475-67.866L83.03,106.19Z" transform="translate(15.652 52.133)" fill="#3aa7b0"></path><path id="Trazado_222" data-name="Trazado 222" d="M59.38,119.372s2.535,29.788,9.721,66.107,2.117,77.274,5.487,111.267a34.7,34.7,0,0,0,19.859,0s2.952-63.3,3.8-100.547,7.6-59.592,2.952-92.168Z" transform="translate(29.149 51.072)" fill="#59bfc7"></path><path id="Trazado_223" data-name="Trazado 223" d="M78.434,51.645,76.317,38.54A39.332,39.332,0,0,0,53.491,60.1c-4.816,11.346-10.138,19.024-15.64,28.312-2.788,4.726-21.126,23.243-20.709,22.826S29.4,117.156,29.4,117.156s18.174-10.988,22.394-15.64S63.2,85.042,63.2,85.042Z" transform="translate(8.41 18.923)" fill="#404040"></path><path id="Trazado_224" data-name="Trazado 224" d="M68.7,37.12S45.873,45.156,46.305,70.5s2.952,43.952.417,56.625-13.105,19.442.417,26.628,65.078-5.919,66.346-17.324-6.769-11.405-7.6-29.162,2.281-56.058,2.281-56.058S106.732,39.655,68.7,37.12Z" transform="translate(19.83 18.225)" fill="#1c1c1c"></path><path id="Trazado_225" data-name="Trazado 225" d="M59.463,24.931A17.392,17.392,0,0,1,42.66,15.2s2.117,2.117,7.6,1.267c0,0-8.871-2.535-5.919-13.94,0,0,2.952,6.769,15.64,2.952s19.024-8.453,26.2-2.952S88.3,13.928,88.3,13.928s4.652-1.267,6.769,8.453S82.393,46.892,83.66,53.661s-7.6-8.036-7.6-8.036Z" transform="translate(20.941 0)" fill="url(#linear-gradient-4)"></path><path id="Trazado_226" data-name="Trazado 226" d="M75.046,27.48s-1.267,6.769,1.685,12.255-.417,13.94-10.138,17.324-8.871-2.952-6.769-8.036a9.186,9.186,0,0,0-.85-8.871Z" transform="translate(28.705 13.493)" fill="url(#linear-gradient-5)"></path><path id="Trazado_227" data-name="Trazado 227" d="M51.02,17.891S54.4,52.122,64.543,52.539s15.848-18.8,15.848-18.8,4.219-3.384,2.952-8.453-5.069-1.267-5.069,5.487c0,0-4.652-2.952-5.069-11.405a8.6,8.6,0,0,1-5.069-5.487S60.532,19.367,51.02,17.891Z" transform="translate(25.045 6.817)" fill="url(#linear-gradient-6)"></path><path id="Trazado_228" data-name="Trazado 228" d="M15.14,89.664l2.326-1.744a8.785,8.785,0,0,1,5.293-1.759H48.984a2.532,2.532,0,0,1,2.535,2.535v16.818a5.653,5.653,0,0,1-2.535,4.711l-3.5,2.311Z" transform="translate(7.431 42.3)" fill="#564559"></path><path id="Trazado_229" data-name="Trazado 229" d="M44.735,111.8H17.272a2.949,2.949,0,0,1-2.952-2.952V91.1a2.949,2.949,0,0,1,2.952-2.952H44.735A2.949,2.949,0,0,1,47.687,91.1v17.742A2.93,2.93,0,0,1,44.735,111.8Z" transform="translate(7.028 43.277)" fill="#6f5972"></path><path id="Trazado_230" data-name="Trazado 230" d="M36.747,98.863a8.453,8.453,0,1,1-8.453-8.453A8.456,8.456,0,0,1,36.747,98.863Z" transform="translate(9.738 44.386)" fill="#564559"></path><path id="Trazado_231" data-name="Trazado 231" d="M33.378,98.029a5.919,5.919,0,1,1-5.919-5.919A5.924,5.924,0,0,1,33.378,98.029Z" transform="translate(10.573 45.221)" fill="#6f5972"></path><circle id="Elipse_12" data-name="Elipse 12" cx="4.652" cy="4.652" r="4.652" transform="translate(33.38 138.598)" fill="#c4a3cc"></circle><path id="Trazado_232" data-name="Trazado 232" d="M53.17,91.013l-3.22-.209s-7.186-5.919-9.3-5.487,1.685,4.219,1.685,7.6-5.487.417-6.769-2.535-2.952-1.267-3.384,1.267,1.685,11.838,3.384,16.475,13.94-2.117,16.475-2.952,3.683-1.193,3.683-1.193Z" transform="translate(15.769 41.875)" fill="url(#linear-gradient-7)"></path><path id="Trazado_233" data-name="Trazado 233" d="M15.925,89.06c1.073.417,2.833.432,2.833,6.784s2.117,13.105,0,13.523-5.487-1.685-6.336-9.721S12.66,87.778,15.925,89.06Z" transform="translate(5.96 43.604)" fill="url(#linear-gradient-8)"></path><path id="Trazado_234" data-name="Trazado 234" d="M46.392,109.444s-1.267,10.571,3.384,15.207a244.308,244.308,0,0,0,28.73-5.069c16.057-3.8,21.976-3.8,26.2-14.79,4.816-12.539,8.453-40.15,4.652-51.973-3.444-10.72-16.311-10.243-17.324,6.769-1.267,21.126-.85,32.114-4.219,35.5S73.02,104.36,46.392,109.444Z" transform="translate(22.695 22.401)" fill="#404040"></path><path id="Trazado_235" data-name="Trazado 235" d="M40.432,110.5H19.514a.961.961,0,0,1-.954-.954v-4.86a.961.961,0,0,1,.954-.954H40.432a.961.961,0,0,1,.954.954v4.86A.951.951,0,0,1,40.432,110.5Z" transform="translate(9.11 50.925)" fill="#564559"></path><path id="Trazado_236" data-name="Trazado 236" d="M33.971,115.879h-11.2a.961.961,0,0,1-.954-.954v-5.71a.961.961,0,0,1,.954-.954h11.2a.961.961,0,0,1,.954.954v5.71A.951.951,0,0,1,33.971,115.879Z" transform="translate(10.71 53.149)" fill="#4d3f51"></path><path id="Trazado_237" data-name="Trazado 237" d="M36.78,117.177H21.364a.961.961,0,0,1-.954-.954v-1.908a.961.961,0,0,1,.954-.954H36.8a.961.961,0,0,1,.954.954v1.908A.984.984,0,0,1,36.78,117.177Z" transform="translate(10.018 55.653)" fill="#564559"></path><rect id="Rectángulo_160" data-name="Rectángulo 160" width="5.487" height="65.928" transform="translate(36.347 172.829)" fill="#89778c"></rect><path id="Trazado_238" data-name="Trazado 238" d="M52.872,249.29s-12.434-19.74-24.272-.522A56.262,56.262,0,0,0,52.872,249.29Z" transform="translate(14.039 117.999)" fill="#f4e9ea"></path><path id="Trazado_239" data-name="Trazado 239" d="M2.116,291.915a2.087,2.087,0,0,1-2.043-2.624L32.8,160.7H46.172L83.385,289.008a2.119,2.119,0,1,1-4.07,1.178L43,164.934H36.079l-31.92,125.4A2.1,2.1,0,0,1,2.116,291.915Z" transform="translate(0 78.893)" fill="#89778c"></path><path id="Trazado_240" data-name="Trazado 240" d="M26.917,299.883a2.116,2.116,0,0,1-2.117-2.117V162.957a2.117,2.117,0,0,1,4.234,0V297.765A2.116,2.116,0,0,1,26.917,299.883Z" transform="translate(12.173 78.961)" fill="#89778c"></path><path id="Trazado_241" data-name="Trazado 241" d="M36.5,166.481h-15a.961.961,0,0,1-.954-.954v-4.443a.961.961,0,0,1,.954-.954h15a.961.961,0,0,1,.954.954v4.443A.961.961,0,0,1,36.5,166.481Z" transform="translate(10.087 78.613)" fill="#564559"></path></g></g></svg> 